<?xml version="1.0" standalone="no"?>
<!DOCTYPE svg PUBLIC "-//W3C//DTD SVG 20010904//EN" "http://www.w3.org/TR/2001/REC-SVG-20010904/DTD/svg10.dtd">
<svg xmlns="http://www.w3.org/2000/svg" version="1.0" width="256.000000pt" height="256.000000pt" viewBox="0 0 256.000000 256.000000" preserveAspectRatio="xMidYMid meet">
<metadata>
Created by potrace 1.16, written by Peter Selinger 2001-2019
<meta name="Producer" content="Online-Convert"/></metadata>
<g transform="translate(0.000000,256.000000) scale(0.100000,-0.100000)" fill="#000000" stroke="none">
<path d="M1041 1896 c-21 -25 -2 -46 40 -46 l39 0 0 -182 0 -181 -88 -136 c-162 -249 -259 -433 -269 -509 -12 -93 29 -160 112 -181 59 -15 755 -15 810 0 45 12 80 41 102 83 22 42 12 116 -27 203 l-32 72 21 34 c20 32 21 48 21 250 0 182 2 216 15 221 8 3 15 12 15 21 0 13 -20 15 -134 15 -137 0 -169 -9 -132 -35 14 -11 16 -28 14 -106 l-3 -93 -52 80 -53 80 0 182 0 182 40 0 c44 0 61 19 40 45 -18 21 -461 22 -479 1z m339 -233 l0 -188 47 -67 c48 -70 52 -92 11 -64 -28 20 -57 20 -84 2 -17 -12 -22 -12 -39 0 -24 17 -64 18 -87 0 -10 -7 -47 -14 -83 -15 l-66 -2 50 75 51 75 0 186 0 185 100 0 100 0 0 -187z m360 -212 l0 -70 -30 9 c-18 5 -32 5 -35 -1 -4 -5 -26 -9 -51 -9 l-44 0 0 70 0 70 80 0 80 0 0 -69z m-159 -540 c44 -44 33 -108 -21 -131 -97 -40 -157 98 -65 148 33 18 55 14 86 -17z"/>
</g>
</svg>
